<svg width="69" height="69" viewBox="0 0 69 69" fill="none" xmlns="http://www.w3.org/2000/svg">
<path d="M0.876207 50L7.4269 16.2034H15.0624L21.5714 50H15.1876L13.9776 42.5731H8.6369L7.34345 50H0.876207ZM9.26276 38.359H13.31L11.2655 24.7152L9.26276 38.359ZM12.4791 50V16.2034H21.2412C23.5221 16.2034 25.4692 16.4677 27.0826 16.9962C28.7237 17.4969 29.9754 18.4009 30.8377 19.7083C31.7278 21.0156 32.1729 22.8237 32.1729 25.1324C32.1729 26.5232 32.0477 27.761 31.7974 28.8459C31.5749 29.9029 31.1576 30.8347 30.5457 31.6414C29.9615 32.4202 29.127 33.0461 28.0422 33.519L32.7153 50H25.6639L21.7836 34.6872H19.3636V50H12.4791ZM19.3636 30.5983H21.3663C22.479 30.5983 23.3552 30.4175 23.995 30.0559C24.6347 29.6943 25.0798 29.1518 25.3301 28.4286C25.6083 27.6776 25.7474 26.7597 25.7474 25.6748C25.7474 24.1171 25.4553 22.9349 24.8712 22.1283C24.3149 21.2938 23.2578 20.8766 21.7001 20.8766H19.3636V30.5983Z" fill="#E19452" style="fill:#E19452;fill:color(display-p3 0.8824 0.5804 0.3216);fill-opacity:1;"/>
<path d="M41.2405 42V34.9831H42.5395V42H41.2405ZM41.2405 33.939V32.5794H42.5395V33.939H41.2405ZM51.2256 42V34.9831H52.5246V35.6751C52.7593 35.4565 53.0183 35.2704 53.3015 35.1166C53.5848 34.9628 53.8964 34.886 54.2363 34.886C54.5196 34.886 54.7341 34.9588 54.8797 35.1045C55.0335 35.2502 55.1387 35.4323 55.1954 35.6508C55.2601 35.8693 55.2925 36.0919 55.2925 36.3185V42H53.9935V36.6948C53.9935 36.4439 53.9571 36.2497 53.8843 36.1121C53.8114 35.9745 53.6617 35.9057 53.4351 35.9057C53.2894 35.9057 53.1356 35.9502 52.9738 36.0393C52.82 36.1202 52.6703 36.2214 52.5246 36.3428V42H51.2256ZM65.7627 42.0971C65.1881 42.0971 64.751 41.9838 64.4516 41.7572C64.1602 41.5225 63.9619 41.1947 63.8567 40.7739C63.7596 40.353 63.711 39.8634 63.711 39.3049V37.6903C63.711 37.0995 63.7636 36.5977 63.8688 36.1849C63.9741 35.7641 64.1723 35.4444 64.4637 35.2259C64.7632 34.9993 65.1961 34.886 65.7627 34.886C66.2726 34.886 66.6651 34.9709 66.9403 35.1409C67.2235 35.3028 67.4178 35.5496 67.523 35.8814C67.6282 36.2052 67.6808 36.6098 67.6808 37.0954V37.5082H66.5032V37.0833C66.5032 36.7758 66.483 36.533 66.4425 36.3549C66.4021 36.1768 66.3292 36.0474 66.224 35.9664C66.1188 35.8855 65.9691 35.845 65.7748 35.845C65.5644 35.845 65.4025 35.8936 65.2892 35.9907C65.1759 36.0878 65.099 36.2537 65.0586 36.4884C65.0262 36.7151 65.01 37.0266 65.01 37.4232V39.6327C65.01 40.2316 65.0667 40.6322 65.18 40.8346C65.2933 41.0369 65.4956 41.1381 65.787 41.1381C66.0055 41.1381 66.1633 41.0895 66.2604 40.9924C66.3656 40.8872 66.4304 40.7415 66.4547 40.5553C66.487 40.3692 66.5032 40.1588 66.5032 39.9241V39.3535H67.6808V39.8391C67.6808 40.3085 67.6241 40.7132 67.5108 41.0531C67.4056 41.393 67.2114 41.652 66.9281 41.83C66.6529 42.0081 66.2645 42.0971 65.7627 42.0971Z" fill="white" style="fill:white;fill:white;fill-opacity:1;"/>
<line x1="40.5" y1="49.8787" x2="55.5" y2="49.8787" stroke="#E19452" style="stroke:#E19452;stroke:color(display-p3 0.8824 0.5804 0.3216);stroke-opacity:1;" stroke-width="0.758621"/>
</svg>
